PathFileType	4	(X/Y/Z)	l_comf_01_markers.trc
DataRate	CameraRate	NumFrames	NumMarkers	Units	OrigDataRate	OrigDataStartFrame	OrigNumFrames
100.000000	100.000000	5	96	mm	100.000000	243	973
Frame#	Time	Torso1			Torso2			Torso3			RFemur1			RFemur2			RFemur3			RFemur4			LFemur1			LFemur2			LFemur4			RTibia1			RTibia2			RTibia3			RTibia4			LTibia2			LTibia3			LTibia4			LFoot1			LFoot2			LFoot3			RFoot2			RFoot3			LFemur3			LTibia1			RFoot1			Pelvis3			Pelvis4			Torso4			Pelvis1			Pelvis2			*30			*31			*32			*33			*34			*35			*36			*37			*38			*39			*40			*41			*42			*43			*44			*45			*46			*47			*48			*49			*50			*51			*52			*53			*54			*55			*56			*57			*58			*59			*60			*61			*62			*63			*64			Pelvis_RFemur_score			Pelvis_LFemur_score			RFemur_RTibia_score			RFemur_RTibia_sara			LFemur_LTibia_score			LFemur_LTibia_sara			RKnee			LKnee			RTibia_RFoot_score			LTibia_LFoot_score			USERMO0			USERMO1			USERMO2			USERMO3			USERMO4			USERMO5			USERMO6			USERMO7			USERMO8			USERMO9			USERMO10			USERMO11			USERMO12			USERMO13			USERMO14			USERMO15			USERMO16			USERMO17			USERMO18			USERMO19			USERMO20			
		X1	Y1	Z1	X2	Y2	Z2	X3	Y3	Z3	X4	Y4	Z4	X5	Y5	Z5	X6	Y6	Z6	X7	Y7	Z7	X8	Y8	Z8	X9	Y9	Z9	X10	Y10	Z10	X11	Y11	Z11	X12	Y12	Z12	X13	Y13	Z13	X14	Y14	Z14	X15	Y15	Z15	X16	Y16	Z16	X17	Y17	Z17	X18	Y18	Z18	X19	Y19	Z19	X20	Y20	Z20	X21	Y21	Z21	X22	Y22	Z22	X23	Y23	Z23	X24	Y24	Z24	X25	Y25	Z25	X26	Y26	Z26	X27	Y27	Z27	X28	Y28	Z28	X29	Y29	Z29	X30	Y30	Z30	X31	Y31	Z31	X32	Y32	Z32	X33	Y33	Z33	X34	Y34	Z34	X35	Y35	Z35	X36	Y36	Z36	X37	Y37	Z37	X38	Y38	Z38	X39	Y39	Z39	X40	Y40	Z40	X41	Y41	Z41	X42	Y42	Z42	X43	Y43	Z43	X44	Y44	Z44	X45	Y45	Z45	X46	Y46	Z46	X47	Y47	Z47	X48	Y48	Z48	X49	Y49	Z49	X50	Y50	Z50	X51	Y51	Z51	X52	Y52	Z52	X53	Y53	Z53	X54	Y54	Z54	X55	Y55	Z55	X56	Y56	Z56	X57	Y57	Z57	X58	Y58	Z58	X59	Y59	Z59	X60	Y60	Z60	X61	Y61	Z61	X62	Y62	Z62	X63	Y63	Z63	X64	Y64	Z64	X65	Y65	Z65	X66	Y66	Z66	X67	Y67	Z67	X68	Y68	Z68	X69	Y69	Z69	X70	Y70	Z70	X71	Y71	Z71	X72	Y72	Z72	X73	Y73	Z73	X74	Y74	Z74	X75	Y75	Z75	X76	Y76	Z76	X77	Y77	Z77	X78	Y78	Z78	X79	Y79	Z79	X80	Y80	Z80	X81	Y81	Z81	X82	Y82	Z82	X83	Y83	Z83	X84	Y84	Z84	X85	Y85	Z85	X86	Y86	Z86	X87	Y87	Z87	X88	Y88	Z88	X89	Y89	Z89	X90	Y90	Z90	X91	Y91	Z91	X92	Y92	Z92	X93	Y93	Z93	X94	Y94	Z94	X95	Y95	Z95	X96	Y96	Z96	

244	2.43	nan	nan	nan	nan	nan	nan	nan	nan	nan	nan	nan	nan	nan	nan	nan	nan	nan	nan	nan	nan	nan	nan	nan	nan	nan	nan	nan	nan	nan	nan	nan	nan	nan	nan	nan	nan	nan	nan	nan	nan	nan	nan	nan	nan	nan	nan	nan	nan	nan	nan	nan	nan	nan	nan	nan	nan	nan	nan	nan	nan	nan	nan	nan	nan	nan	nan	nan	nan	nan	nan	nan	nan	nan	nan	nan	nan	nan	nan	nan	nan	nan	nan	nan	nan	nan	nan	nan	nan	nan	nan	-204.1031036376953	-5979.630859375	550.2673950195312	-214.8476409912109	-5971.35205078125	318.395263671875	nan	nan	nan	-373.1288757324219	-5980.65673828125	1319.41943359375	1514.721435546875	1874.860717773438	632.3751831054688	-210.8948516845703	-6048.1953125	1340.70458984375	-541.72265625	-6363.4453125	-20.81573104858398	nan	nan	nan	2072.676513671875	1753.460693359375	494.1148071289062	-214.9893493652344	-5950.72802734375	275.7340393066406	1445.633056640625	1364.205444335938	518.2201538085938	nan	nan	nan	1628.125732421875	1821.346923828125	657.9151000976562	nan	nan	nan	nan	nan	nan	nan	nan	nan	nan	nan	nan	nan	nan	nan	nan	nan	nan	nan	nan	nan	nan	nan	nan	nan	nan	nan	nan	nan	nan	nan	nan	nan	nan	nan	nan	nan	nan	nan	nan	nan	nan	nan	nan	nan	nan	nan	nan	nan	nan	nan	nan	nan	nan	nan	nan	nan	nan	nan	nan	nan	nan	nan	nan	nan	nan	nan	nan	nan	nan	nan	nan	nan	nan	nan	nan	nan	nan	nan	nan	nan	nan	nan	nan	nan	nan	nan	nan	nan	nan	nan	nan	nan	nan	nan	nan	nan	nan	nan	nan	nan	nan	nan	nan	nan	nan	nan	nan	nan	nan	nan	nan	nan	nan	nan	nan	nan	nan	nan	nan	nan	nan	nan	nan	nan	nan	nan	nan	nan	nan	nan	nan	nan	nan	nan	nan	nan	nan	nan	nan	nan	nan	nan	nan	nan	nan	nan	nan	nan	nan	nan	nan	nan	nan	nan	nan	nan	nan	nan	
245	2.44	nan	nan	nan	nan	nan	nan	nan	nan	nan	nan	nan	nan	nan	nan	nan	nan	nan	nan	nan	nan	nan	nan	nan	nan	nan	nan	nan	nan	nan	nan	nan	nan	nan	nan	nan	nan	nan	nan	nan	nan	nan	nan	nan	nan	nan	nan	nan	nan	nan	nan	nan	nan	nan	nan	nan	nan	nan	nan	nan	nan	nan	nan	nan	nan	nan	nan	nan	nan	nan	nan	nan	nan	nan	nan	nan	nan	nan	nan	nan	nan	nan	nan	nan	nan	nan	nan	nan	nan	nan	nan	-201.4877319335938	-5969.82958984375	550.9014282226562	nan	nan	nan	-546.7825317382812	-5999.46875	1381.348876953125	-369.2153015136719	-5969.552734375	1320.658813476562	1514.837036132812	1874.91552734375	632.5	-206.1104583740234	-6033.109375	1342.368530273438	-541.5701904296875	-6362.59619140625	-20.59242630004883	-213.6732177734375	-5956.8388671875	376.95263671875	2072.86083984375	1753.25341796875	493.6653442382812	nan	nan	nan	1445.732666015625	1364.086303710938	518.242919921875	-206.1719665527344	-5662.5634765625	27.75565147399902	1628.104248046875	1821.379516601562	657.9898681640625	nan	nan	nan	nan	nan	nan	nan	nan	nan	nan	nan	nan	nan	nan	nan	nan	nan	nan	nan	nan	nan	nan	nan	nan	nan	nan	nan	nan	nan	nan	nan	nan	nan	nan	nan	nan	nan	nan	nan	nan	nan	nan	nan	nan	nan	nan	nan	nan	nan	nan	nan	nan	nan	nan	nan	nan	nan	nan	nan	nan	nan	nan	nan	nan	nan	nan	nan	nan	nan	nan	nan	nan	nan	nan	nan	nan	nan	nan	nan	nan	nan	nan	nan	nan	nan	nan	nan	nan	nan	nan	nan	nan	nan	nan	nan	nan	nan	nan	nan	nan	nan	nan	nan	nan	nan	nan	nan	nan	nan	nan	nan	nan	nan	nan	nan	nan	nan	nan	nan	nan	nan	nan	nan	nan	nan	nan	nan	nan	nan	nan	nan	nan	nan	nan	nan	nan	nan	nan	nan	nan	nan	nan	nan	nan	nan	nan	nan	nan	nan	nan	nan	nan	nan	nan	nan	nan	nan	nan	nan	
246	2.45	nan	nan	nan	nan	nan	nan	nan	nan	nan	nan	nan	nan	nan	nan	nan	nan	nan	nan	nan	nan	nan	nan	nan	nan	nan	nan	nan	nan	nan	nan	nan	nan	nan	nan	nan	nan	nan	nan	nan	nan	nan	nan	nan	nan	nan	nan	nan	nan	nan	nan	nan	nan	nan	nan	nan	nan	nan	nan	nan	nan	nan	nan	nan	nan	nan	nan	nan	nan	nan	nan	nan	nan	nan	nan	nan	nan	nan	nan	nan	nan	nan	nan	nan	nan	nan	nan	nan	nan	nan	nan	-199.8507995605469	-5963.634765625	551.6121826171875	-234.5058135986328	-5743.4521484375	5.509897232055664	nan	nan	nan	-365.0183715820312	-5957.03076171875	1322.227783203125	1514.800903320312	1874.94287109375	632.5931396484375	-202.43505859375	-6027.05126953125	1342.110595703125	-541.4393920898438	-6362.70703125	-20.46776390075684	nan	nan	nan	2072.660400390625	1753.426635742188	494.2399291992188	-209.9933319091797	-5937.1826171875	277.7731323242188	1445.69580078125	1364.268920898438	518.2518310546875	nan	nan	nan	1628.132446289062	1821.317260742188	657.9524536132812	1634.937622070312	1800.83984375	659.0985107421875	1463.790893554688	1824.063232421875	577.3412475585938	nan	nan	nan	nan	nan	nan	nan	nan	nan	nan	nan	nan	nan	nan	nan	nan	nan	nan	nan	nan	nan	nan	nan	nan	nan	nan	nan	nan	nan	nan	nan	nan	nan	nan	nan	nan	nan	nan	nan	nan	nan	nan	nan	nan	nan	nan	nan	nan	nan	nan	nan	nan	nan	nan	nan	nan	nan	nan	nan	nan	nan	nan	nan	nan	nan	nan	nan	nan	nan	nan	nan	nan	nan	nan	nan	nan	nan	nan	nan	nan	nan	nan	nan	nan	nan	nan	nan	nan	nan	nan	nan	nan	nan	nan	nan	nan	nan	nan	nan	nan	nan	nan	nan	nan	nan	nan	nan	nan	nan	nan	nan	nan	nan	nan	nan	nan	nan	nan	nan	nan	nan	nan	nan	nan	nan	nan	nan	nan	nan	nan	nan	nan	nan	nan	nan	nan	nan	nan	nan	nan	nan	nan	nan	nan	nan	nan	nan	nan	nan	nan	nan	nan	nan	
247	2.46	nan	nan	nan	nan	nan	nan	nan	nan	nan	nan	nan	nan	nan	nan	nan	nan	nan	nan	nan	nan	nan	nan	nan	nan	nan	nan	nan	nan	nan	nan	nan	nan	nan	nan	nan	nan	nan	nan	nan	nan	nan	nan	nan	nan	nan	nan	nan	nan	nan	nan	nan	nan	nan	nan	nan	nan	nan	nan	nan	nan	nan	nan	nan	nan	nan	nan	nan	nan	nan	nan	nan	nan	nan	nan	nan	nan	nan	nan	nan	nan	nan	nan	nan	nan	nan	nan	nan	nan	nan	nan	-198.14208984375	-5953.92578125	552.643798828125	nan	nan	nan	-209.2189025878906	-5946.32666015625	323.4912109375	nan	nan	nan	1514.704223632812	1874.876831054688	632.4862670898438	-197.2552032470703	-6023.61279296875	1341.692016601562	-541.0201416015625	-6361.63671875	-20.2954158782959	-208.8301239013672	-5942.54931640625	377.6519470214844	nan	nan	nan	-208.5774383544922	-5930.90234375	277.7440490722656	1445.592407226562	1364.355346679688	518.3089599609375	-206.8926849365234	-5648.06494140625	23.90048599243164	1628.134887695312	1821.311279296875	657.9481811523438	1634.963623046875	1800.815551757812	659.0789794921875	1463.771850585938	1824.03076171875	577.2935180664062	-3557.330322265625	-673.6121826171875	994.6738891601562	-3552.134765625	-669.4871215820312	971.7133178710938	nan	nan	nan	nan	nan	nan	nan	nan	nan	nan	nan	nan	nan	nan	nan	nan	nan	nan	nan	nan	nan	nan	nan	nan	nan	nan	nan	nan	nan	nan	nan	nan	nan	nan	nan	nan	nan	nan	nan	nan	nan	nan	nan	nan	nan	nan	nan	nan	nan	nan	nan	nan	nan	nan	nan	nan	nan	nan	nan	nan	nan	nan	nan	nan	nan	nan	nan	nan	nan	nan	nan	nan	nan	nan	nan	nan	nan	nan	nan	nan	nan	nan	nan	nan	nan	nan	nan	nan	nan	nan	nan	nan	nan	nan	nan	nan	nan	nan	nan	nan	nan	nan	nan	nan	nan	nan	nan	nan	nan	nan	nan	nan	nan	nan	nan	nan	nan	nan	nan	nan	nan	nan	nan	nan	nan	nan	nan	nan	nan	nan	nan	nan	nan	nan	nan	nan	nan	nan	nan	nan	nan	nan	nan	nan	nan	nan	nan	
248	2.47	nan	nan	nan	nan	nan	nan	nan	nan	nan	nan	nan	nan	nan	nan	nan	nan	nan	nan	nan	nan	nan	nan	nan	nan	nan	nan	nan	nan	nan	nan	nan	nan	nan	nan	nan	nan	nan	nan	nan	nan	nan	nan	nan	nan	nan	nan	nan	nan	nan	nan	nan	nan	nan	nan	nan	nan	nan	nan	nan	nan	nan	nan	nan	nan	nan	nan	nan	nan	nan	nan	nan	nan	nan	nan	nan	nan	nan	nan	nan	nan	nan	nan	nan	nan	nan	nan	nan	nan	nan	nan	-195.4749298095703	-5944.6044921875	553.9342041015625	-355.623779296875	-5942.8759765625	1325.130737304688	-206.9994506835938	-5940.77392578125	322.4080810546875	-550.2244873046875	-6236.1767578125	342.0277404785156	1514.788696289062	1874.897094726562	632.4627075195312	-193.3786163330078	-6012.228515625	1342.798950195312	-540.308349609375	-6360.501953125	-19.93915557861328	nan	nan	nan	nan	nan	nan	-207.0158996582031	-5923.4716796875	276.4813842773438	1445.715698242188	1364.216186523438	518.23681640625	-205.0549926757812	-5640.65283203125	21.37348556518555	1628.114624023438	1821.3583984375	657.965576171875	1635.033203125	1800.794799804688	659.1036987304688	1463.7578125	1824.06396484375	577.2684326171875	nan	nan	nan	nan	nan	nan	nan	nan	nan	nan	nan	nan	nan	nan	nan	nan	nan	nan	nan	nan	nan	nan	nan	nan	nan	nan	nan	nan	nan	nan	nan	nan	nan	nan	nan	nan	nan	nan	nan	nan	nan	nan	nan	nan	nan	nan	nan	nan	nan	nan	nan	nan	nan	nan	nan	nan	nan	nan	nan	nan	nan	nan	nan	nan	nan	nan	nan	nan	nan	nan	nan	nan	nan	nan	nan	nan	nan	nan	nan	nan	nan	nan	nan	nan	nan	nan	nan	nan	nan	nan	nan	nan	nan	nan	nan	nan	nan	nan	nan	nan	nan	nan	nan	nan	nan	nan	nan	nan	nan	nan	nan	nan	nan	nan	nan	nan	nan	nan	nan	nan	nan	nan	nan	nan	nan	nan	nan	nan	nan	nan	nan	nan	nan	nan	nan	nan	nan	nan	nan	nan	nan	nan	nan	nan	nan	nan	nan	nan	nan	nan	nan	nan	nan	
